# xmcd
#
# Track frame offsets: 
#        150
#        13745
#        30587
#        49072
#        70957
#        91199
#        103113
#        126182
#        148334
#        167008
#        196877
#
# Disc length: 2671 seconds
#
# Revision: 1
# Processed by: cddbd v1.5.2PL0 Copyright (c) Steve Scherf et al.
# Submitted via: ExactAudioCopy v0.99pb5
#
DISCID=970a6d0b
DTITLE=From Behind - Game Over
DYEAR=2006
DGENRE=Hard Rock
TTITLE0=Queen Bitch
TTITLE1=Catwalk
TTITLE2=What You're Doing
TTITLE3=Picture
TTITLE4=Family
TTITLE5=Boneman
TTITLE6=Crutch
TTITLE7=Gone
TTITLE8=Play Dirty
TTITLE9=Size Doesn't Matter
TTITLE10=Gone (Reprise)
EXTD=
EXTT0=
EXTT1=
EXTT2=
EXTT3=
EXTT4=
EXTT5=
EXTT6=
EXTT7=
EXTT8=
EXTT9=
EXTT10=
PLAYORDER=
